<?xml version="1.0" encoding="UTF-8" standalone="no"?>
<!DOCTYPE svg PUBLIC "-//W3C//DTD SVG 1.1//EN" "http://www.w3.org/Graphics/SVG/1.1/DTD/svg11.dtd">
<svg width="640px" height="160px" viewBox="0 0 200 50" version="1.1" xmlns="http://www.w3.org/2000/svg" xmlns:xlink="http://www.w3.org/1999/xlink" xml:space="preserve" xmlns:serif="http://www.serif.com/" style="fill-rule:evenodd;clip-rule:evenodd;stroke-linejoin:round;stroke-miterlimit:2;">
    <g transform="matrix(1.21544,0,0,1.21544,-18.4364,-11.4834)">
        <g transform="matrix(0.273197,0,0,0.273197,2.21845,2.07883)">
            <path d="M160.144,128.528L147.321,128.528L94.778,75.997L110.782,75.997L160.144,128.528Z" style="fill:rgb(105,96,98);fill-rule:nonzero;"/>
        </g>
        <g transform="matrix(0.273197,0,0,0.273197,2.21845,2.07883)">
            <path d="M161.131,128.125L200.991,88.265C201.528,87.728 201.528,86.851 200.991,86.314L160.559,45.882C160.337,45.66 159.898,45.478 159.584,45.478L79.862,45.478C78.03,45.478 77.591,46.538 78.887,47.833L159.18,128.125C159.716,128.662 160.594,128.662 161.131,128.125Z" style="fill:rgb(225,113,97);fill-rule:nonzero;"/>
        </g>
        <g transform="matrix(0.273197,0,0,0.273197,2.21845,2.07883)">
            <path d="M93.808,76.399L53.947,116.259C53.411,116.796 53.411,117.673 53.947,118.21L94.379,158.642C94.602,158.864 95.041,159.046 95.355,159.046L175.077,159.046C176.908,159.046 177.347,157.986 176.052,156.691L95.759,76.399C95.222,75.862 94.345,75.862 93.808,76.399Z" style="fill:rgb(126,168,178);fill-rule:nonzero;"/>
        </g>
        <g transform="matrix(0.515193,0,0,0.515193,-58.4431,-23.0108)">
            <path d="M240.457,93.365L240.457,87.073L267.722,87.073L267.722,93.693L248.125,115.452L268.771,115.452L268.771,121.81L239.145,121.81L239.145,114.666L258.219,93.365L240.457,93.365Z" style="fill:rgb(59,59,59);fill-rule:nonzero;"/>
        </g>
        <g transform="matrix(0.515193,0,0,0.515193,-58.4431,-23.0108)">
            <path d="M280.874,101.819L300.864,101.819C300.864,98.893 299.947,96.642 298.111,95.069C296.277,93.496 294.015,92.71 291.328,92.71C288.641,92.71 286.226,93.529 284.086,95.167C281.944,96.806 280.874,99.024 280.874,101.819ZM308.205,107.587L280.874,107.587C281.048,110.122 282.206,112.165 284.348,113.716C286.488,115.267 288.935,116.042 291.688,116.042C296.057,116.042 299.378,114.666 301.651,111.913L305.845,116.501C302.087,120.391 297.194,122.334 291.164,122.334C286.27,122.334 282.108,120.707 278.678,117.451C275.248,114.197 273.533,109.827 273.533,104.343C273.533,98.86 275.28,94.502 278.777,91.267C282.272,88.035 286.39,86.417 291.132,86.417C295.872,86.417 299.903,87.849 303.224,90.71C306.544,93.573 308.205,97.517 308.205,102.54L308.205,107.587Z" style="fill:rgb(59,59,59);fill-rule:nonzero;"/>
        </g>
        <g transform="matrix(0.515193,0,0,0.515193,-58.4431,-23.0108)">
            <path d="M323.607,102.934L323.607,121.81L316.267,121.81L316.267,86.942L323.607,86.942L323.607,93.299C324.788,91.159 326.415,89.476 328.491,88.253C330.566,87.03 332.806,86.417 335.209,86.417C339.141,86.417 342.32,87.62 344.745,90.022C347.171,92.426 348.383,95.9 348.383,100.443L348.383,121.81L341.042,121.81L341.042,102.671C341.042,96.249 338.377,93.037 333.046,93.037C330.511,93.037 328.304,93.879 326.427,95.561C324.547,97.243 323.607,99.701 323.607,102.934Z" style="fill:rgb(59,59,59);fill-rule:nonzero;"/>
        </g>
        <g transform="matrix(0.515193,0,0,0.515193,-58.4431,-23.0108)">
            <path d="M367.194,92.841L367.194,110.537C367.194,112.198 367.63,113.519 368.505,114.502C369.378,115.485 370.602,115.977 372.176,115.977C373.748,115.977 375.256,115.212 376.698,113.683L379.713,118.861C377.134,121.177 374.283,122.334 371.159,122.334C368.035,122.334 365.37,121.253 363.164,119.09C360.957,116.927 359.853,114.01 359.853,110.34L359.853,92.841L355.462,92.841L355.462,86.942L359.853,86.942L359.853,75.997L367.194,75.997L367.194,86.942L376.37,86.942L376.37,92.841L367.194,92.841Z" style="fill:rgb(59,59,59);fill-rule:nonzero;"/>
        </g>
        <g transform="matrix(0.515193,0,0,0.515193,-58.4431,-23.0108)">
            <path d="M405.143,93.824C401.516,93.824 398.785,95.003 396.95,97.363C395.115,99.722 394.197,102.891 394.197,106.866L394.197,121.81L386.856,121.81L386.856,86.942L394.197,86.942L394.197,93.955C395.377,91.77 396.983,89.979 399.014,88.58C401.047,87.183 403.198,86.462 405.47,86.417L405.536,93.824L405.143,93.824Z" style="fill:rgb(59,59,59);fill-rule:nonzero;"/>
        </g>
        <g transform="matrix(0.515193,0,0,0.515193,-58.4431,-23.0108)">
            <path d="M433.456,108.833L433.456,105.883L425.199,105.883C419.911,105.883 417.268,107.544 417.268,110.864C417.268,112.569 417.923,113.869 419.234,114.764C420.545,115.66 422.369,116.108 424.706,116.108C427.044,116.108 429.087,115.452 430.835,114.142C432.582,112.83 433.456,111.061 433.456,108.833ZM440.798,121.81L434.112,121.81L434.112,117.157C431.228,120.608 427.361,122.334 422.511,122.334C418.884,122.334 415.88,121.308 413.499,119.254C411.116,117.201 409.927,114.459 409.927,111.028C409.927,107.599 411.194,105.031 413.728,103.327C416.262,101.623 419.693,100.771 424.018,100.771L433.523,100.771L433.523,99.46C433.523,94.829 430.943,92.513 425.789,92.513C422.554,92.513 419.19,93.693 415.694,96.052L412.418,91.464C416.655,88.1 421.462,86.417 426.836,86.417C430.943,86.417 434.298,87.456 436.897,89.531C439.497,91.607 440.798,94.872 440.798,99.329L440.798,121.81Z" style="fill:rgb(59,59,59);fill-rule:nonzero;"/>
        </g>
        <g transform="matrix(0.515193,0,0,0.515193,-58.4431,-23.0108)">
            <rect x="451.677" y="76.046" width="7.34" height="45.764" style="fill:rgb(59,59,59);fill-rule:nonzero;"/>
        </g>
    </g>
</svg>
