<?xml version="1.0" encoding="UTF-8" standalone="no"?>
<!DOCTYPE svg PUBLIC "-//W3C//DTD SVG 1.1//EN" "http://www.w3.org/Graphics/SVG/1.1/DTD/svg11.dtd">
<svg width="100%" height="100%" viewBox="0 0 1334 334" version="1.1" xmlns="http://www.w3.org/2000/svg" xmlns:xlink="http://www.w3.org/1999/xlink" xml:space="preserve" xmlns:serif="http://www.serif.com/" style="fill-rule:evenodd;clip-rule:evenodd;stroke-linejoin:round;stroke-miterlimit:2;">
    <g transform="matrix(2.08333,0,0,2.08333,0,0)">
        <g transform="matrix(1.21544,0,0,1.21544,-58.9965,-36.7469)">
            <g transform="matrix(0.273197,0,0,0.273197,7.09904,6.65226)">
                <path d="M512.461,411.29L471.427,411.29L303.29,243.19L354.502,243.19L512.461,411.29Z" style="fill:rgb(73,79,87);fill-rule:nonzero;"/>
            </g>
            <g transform="matrix(0.273197,0,0,0.273197,7.09904,6.65226)">
                <path d="M515.619,410L643.171,282.448C644.89,280.73 644.89,277.923 643.171,276.205L513.789,146.822C513.078,146.112 511.674,145.53 510.669,145.53L255.558,145.53C249.696,145.53 248.291,148.922 252.438,153.066L509.376,410C511.091,411.718 513.901,411.718 515.619,410Z" style="fill:rgb(234,81,101);fill-rule:nonzero;"/>
            </g>
            <g transform="matrix(0.273197,0,0,0.273197,7.09904,6.65226)">
                <path d="M300.186,244.477L172.63,372.029C170.915,373.747 170.915,376.554 172.63,378.272L302.013,507.654C302.726,508.365 304.131,508.947 305.136,508.947L560.246,508.947C566.106,508.947 567.51,505.555 563.366,501.411L306.429,244.477C304.71,242.758 301.904,242.758 300.186,244.477Z" style="fill:rgb(121,198,188);fill-rule:nonzero;"/>
            </g>
            <g transform="matrix(0.515193,0,0,0.515193,-187.018,-73.6346)">
                <path d="M769.462,298.768L769.462,278.634L856.71,278.634L856.71,299.818L794,369.446L860.067,369.446L860.067,389.792L765.264,389.792L765.264,366.931L826.301,298.768L769.462,298.768Z" style="fill:rgb(91,90,90);fill-rule:nonzero;"/>
            </g>
            <g transform="matrix(0.515193,0,0,0.515193,-187.018,-73.6346)">
                <path d="M898.797,325.821L962.765,325.821C962.765,316.458 959.83,309.254 953.955,304.221C948.086,299.187 940.848,296.672 932.25,296.672C923.651,296.672 915.923,299.293 909.075,304.534C902.221,309.779 898.797,316.877 898.797,325.821ZM986.256,344.278L898.797,344.278C899.354,352.39 903.059,358.928 909.914,363.891C916.762,368.854 924.592,371.334 933.402,371.334C947.382,371.334 958.01,366.931 965.283,358.122L978.704,372.803C966.678,385.251 951.021,391.469 931.725,391.469C916.064,391.469 902.746,386.262 891.77,375.843C880.794,365.43 875.306,351.446 875.306,333.898C875.306,316.352 880.896,302.406 892.086,292.054C903.27,281.712 916.448,276.534 931.622,276.534C946.79,276.534 959.69,281.117 970.317,290.272C980.941,299.434 986.256,312.054 986.256,328.128L986.256,344.278Z" style="fill:rgb(91,90,90);fill-rule:nonzero;"/>
            </g>
            <g transform="matrix(0.515193,0,0,0.515193,-187.018,-73.6346)">
                <path d="M1035.54,329.389L1035.54,389.792L1012.05,389.792L1012.05,278.214L1035.54,278.214L1035.54,298.557C1039.32,291.709 1044.53,286.323 1051.17,282.41C1057.81,278.496 1064.98,276.534 1072.67,276.534C1085.25,276.534 1095.42,280.384 1103.18,288.07C1110.95,295.763 1114.83,306.88 1114.83,321.418L1114.83,389.792L1091.33,389.792L1091.33,328.547C1091.33,307.997 1082.81,297.718 1065.75,297.718C1057.63,297.718 1050.57,300.413 1044.57,305.795C1038.55,311.178 1035.54,319.043 1035.54,329.389Z" style="fill:rgb(91,90,90);fill-rule:nonzero;"/>
            </g>
            <g transform="matrix(0.515193,0,0,0.515193,-187.018,-73.6346)">
                <path d="M1175.02,297.091L1175.02,353.718C1175.02,359.034 1176.42,363.261 1179.22,366.406C1182.01,369.552 1185.93,371.126 1190.96,371.126C1195.99,371.126 1200.82,368.678 1205.43,363.786L1215.08,380.355C1206.83,387.766 1197.71,391.469 1187.71,391.469C1177.71,391.469 1169.18,388.01 1162.12,381.088C1155.06,374.166 1151.53,364.832 1151.53,353.088L1151.53,297.091L1137.48,297.091L1137.48,278.214L1151.53,278.214L1151.53,243.19L1175.02,243.19L1175.02,278.214L1204.38,278.214L1204.38,297.091L1175.02,297.091Z" style="fill:rgb(91,90,90);fill-rule:nonzero;"/>
            </g>
            <g transform="matrix(0.515193,0,0,0.515193,-187.018,-73.6346)">
                <path d="M1296.46,300.237C1284.85,300.237 1276.11,304.01 1270.24,311.562C1264.37,319.11 1261.43,329.251 1261.43,341.971L1261.43,389.792L1237.94,389.792L1237.94,278.214L1261.43,278.214L1261.43,300.656C1265.21,293.664 1270.35,287.933 1276.85,283.456C1283.35,278.986 1290.23,276.678 1297.5,276.534L1297.71,300.237L1296.46,300.237Z" style="fill:rgb(91,90,90);fill-rule:nonzero;"/>
            </g>
            <g transform="matrix(0.515193,0,0,0.515193,-187.018,-73.6346)">
                <path d="M1387.06,348.266L1387.06,338.826L1360.64,338.826C1343.71,338.826 1335.26,344.141 1335.26,354.765C1335.26,360.221 1337.35,364.381 1341.55,367.245C1345.74,370.112 1351.58,371.546 1359.06,371.546C1366.54,371.546 1373.08,369.446 1378.67,365.254C1384.26,361.056 1387.06,355.395 1387.06,348.266ZM1410.55,389.792L1389.16,389.792L1389.16,374.902C1379.93,385.946 1367.56,391.469 1352.04,391.469C1340.43,391.469 1330.82,388.186 1323.2,381.613C1315.57,375.043 1311.77,366.269 1311.77,355.29C1311.77,344.317 1315.82,336.099 1323.93,330.646C1332.04,325.194 1343.02,322.467 1356.86,322.467L1387.27,322.467L1387.27,318.272C1387.27,303.453 1379.02,296.042 1362.53,296.042C1352.17,296.042 1341.41,299.818 1330.22,307.366L1319.74,292.685C1333.3,281.92 1348.68,276.534 1365.88,276.534C1379.02,276.534 1389.75,279.859 1398.07,286.499C1406.39,293.142 1410.55,303.59 1410.55,317.853L1410.55,389.792Z" style="fill:rgb(91,90,90);fill-rule:nonzero;"/>
            </g>
            <g transform="matrix(0.515193,0,0,0.515193,-187.018,-73.6346)">
                <rect x="1445.37" y="243.347" width="23.488" height="146.445" style="fill:rgb(91,90,90);"/>
            </g>
        </g>
    </g>
</svg>
